# xmcd CD database file
#
# Track frame offsets:
#	150
#	21521
#	41327
#	63904
#	80496
#	100959
#	120082
#	140350
#	156328
#	178465
#
# Disc length: 2648 seconds
#
# Revision: 0
# Processed by: cddbd v1.5.1PL2 Copyright (c) Steve Scherf et al.
# Submitted via: CDex 1.51
#
DISCID=810a560a
DTITLE=Lady E - Da Feelin
DYEAR=2006
DGENRE=Merengue
TTITLE0=If you feel it
TTITLE1=Soca plane
TTITLE2=You and Me
TTITLE3=Girl power
TTITLE4=Too much woman for you
TTITLE5=Hard Worker
TTITLE6=Soca Luv
TTITLE7=Fling it up
TTITLE8=Jah luv
TTITLE9=If you feel it (remix)
EXTD=YEAR: 2006
EXTT0=
EXTT1=
EXTT2=
EXTT3=
EXTT4=
EXTT5=
EXTT6=
EXTT7=
EXTT8=
EXTT9=
PLAYORDER=
